<svg xmlns="http://www.w3.org/2000/svg" xmlns:xlink="http://www.w3.org/1999/xlink" width="527.785" height="367.85" viewBox="0 0 527.785 367.85">
  <defs>
    <linearGradient id="linear-gradient" y1="0.5" x2="1" y2="0.5" gradientUnits="objectBoundingBox">
      <stop offset="0" stop-color="#ffb287"/>
      <stop offset="0.511" stop-color="#ff5e85"/>
      <stop offset="1" stop-color="#ad2786"/>
    </linearGradient>
    <linearGradient id="linear-gradient-2" x1="0.5" x2="0.5" y2="1" gradientUnits="objectBoundingBox">
      <stop offset="0" stop-color="#b778ff"/>
      <stop offset="1" stop-color="#4437e2"/>
    </linearGradient>
  </defs>
  <g id="Group_30802" data-name="Group 30802" transform="translate(-591.998 -95.064)">
    <g id="Group_30797" data-name="Group 30797" transform="translate(735.887 218.026)">
      <circle id="Ellipse_2285" data-name="Ellipse 2285" cx="122.444" cy="122.444" r="122.444" fill="url(#linear-gradient)"/>
      <path id="Path_387" data-name="Path 387" d="M909.681,380.622a25.717,25.717,0,0,1-25.713,25.718c-.736,0-1.461-.03-2.179-.095a25.714,25.714,0,0,1,2.179-51.336,25.335,25.335,0,0,1,3.569.249A25.719,25.719,0,0,1,909.681,380.622Z" transform="translate(-809.054 -292.275)" fill="#911334"/>
      <path id="Path_388" data-name="Path 388" d="M960.4,497.69a20.45,20.45,0,0,1-20.446,20.445c-.516,0-1.033-.018-1.537-.059-.012.006-.024,0-.036,0a20.449,20.449,0,0,1,1.574-40.838,19.919,19.919,0,0,1,2.928.214h.036A20.457,20.457,0,0,1,960.4,497.69Z" transform="translate(-825.886 -325.892)" fill="#911334"/>
      <path id="Path_389" data-name="Path 389" d="M1052.938,459.8a15.253,15.253,0,0,1-15.249,15.255c-.326,0-.653-.012-.974-.03a15.253,15.253,0,0,1,.974-30.476,15.62,15.62,0,0,1,2.369.184A15.255,15.255,0,0,1,1052.938,459.8Z" transform="translate(-854.175 -316.909)" fill="#911334"/>
      <path id="Path_390" data-name="Path 390" d="M858.4,528.771a7.066,7.066,0,0,1-7.061,7.06.522.522,0,0,1-.095-.006,7.058,7.058,0,0,1,.095-14.116,6.786,6.786,0,0,1,1.484.16A7.059,7.059,0,0,1,858.4,528.771Z" transform="translate(-805.216 -338.113)" fill="#911334"/>
      <path id="Path_391" data-name="Path 391" d="M1024.5,552.465a5.734,5.734,0,0,1-5.671,5.736h-.059a5.735,5.735,0,1,1,5.731-5.736Z" transform="translate(-851.589 -344.99)" fill="#911334"/>
      <path id="Path_392" data-name="Path 392" d="M1083.438,369.95a5.738,5.738,0,0,1-5.671,5.737h-.065a5.733,5.733,0,0,1,0-11.467,5.794,5.794,0,0,1,1.331.154A5.731,5.731,0,0,1,1083.438,369.95Z" transform="translate(-867.786 -294.834)" fill="#911334"/>
      <path id="Path_393" data-name="Path 393" d="M935.389,302.443a5.729,5.729,0,0,1-5.671,5.73h-.06a5.732,5.732,0,1,1,5.731-5.73Z" transform="translate(-827.102 -276.282)" fill="#911334"/>
      <path id="Path_394" data-name="Path 394" d="M910.21,380.681A25.717,25.717,0,0,1,884.5,406.4c-.736,0-1.46-.03-2.179-.095a25.716,25.716,0,0,1,3.569-51.182c.737,0,1.461.03,2.179.095A25.719,25.719,0,0,1,910.21,380.681Z" transform="translate(-809.583 -292.334)" fill="#be3152"/>
      <path id="Path_395" data-name="Path 395" d="M960.926,497.748a20.45,20.45,0,0,1-20.446,20.445c-.516,0-1.033-.018-1.537-.059-.012.006-.024,0-.036,0a20.45,20.45,0,0,1,2.964-40.683c.516,0,1.033.018,1.537.059h.036A20.457,20.457,0,0,1,960.926,497.748Z" transform="translate(-826.415 -325.95)" fill="#be3152"/>
      <path id="Path_396" data-name="Path 396" d="M1053.466,459.858a15.253,15.253,0,0,1-15.249,15.255c-.326,0-.653-.012-.974-.03a15.253,15.253,0,0,1,2.369-30.321c.327,0,.653.012.974.03A15.255,15.255,0,0,1,1053.466,459.858Z" transform="translate(-854.703 -316.967)" fill="#aa2649"/>
      <path id="Path_397" data-name="Path 397" d="M858.927,528.83a7.066,7.066,0,0,1-7.061,7.06.523.523,0,0,1-.095-.006,7.06,7.06,0,0,1,1.484-13.961.516.516,0,0,1,.095.006A7.059,7.059,0,0,1,858.927,528.83Z" transform="translate(-805.742 -338.172)" fill="#be3152"/>
      <path id="Path_398" data-name="Path 398" d="M1025.026,552.524a5.074,5.074,0,1,1-4.4-5.576A5.734,5.734,0,0,1,1025.026,552.524Z" transform="translate(-852.118 -345.049)" fill="#aa2649"/>
      <path id="Path_399" data-name="Path 399" d="M1083.967,370.008a5.074,5.074,0,1,1-4.406-5.576A5.738,5.738,0,0,1,1083.967,370.008Z" transform="translate(-868.315 -294.892)" fill="#aa2649"/>
      <path id="Path_400" data-name="Path 400" d="M935.917,302.5a5.074,5.074,0,1,1-4.4-5.576A5.729,5.729,0,0,1,935.917,302.5Z" transform="translate(-827.63 -276.341)" fill="#be3152"/>
    </g>
    <path id="Path_401" data-name="Path 401" d="M654.828,476.806V446.615H592V405.272l37.535-80.781h72.078V406.36H720.65v40.255H701.611v30.191Zm.272-117.772h-1.632l-19.312,46.238.817,1.088h19.855Z" transform="translate(0 -65.89)" fill="#fff"/>
    <path id="Path_402" data-name="Path 402" d="M1205.209,476.806V446.615h-62.83V405.272l37.535-80.781h72.077V406.36h19.04v40.255h-19.04v30.191Zm.272-117.772h-1.632l-19.312,46.238.816,1.088h19.856Z" transform="translate(-151.248 -65.89)" fill="#fff"/>
    <g id="Group_30801" data-name="Group 30801" transform="translate(804.945 84.722)">
      <path id="Path_403" data-name="Path 403" d="M1010.814,328.317l3.3,19.634c7.14,7.777,7.235-1.4,7.235-1.4l2.16-20.829" transform="translate(-920.039 -150.951)" fill="#ffbea1"/>
      <path id="Path_404" data-name="Path 404" d="M1014.652,359.543l.508-3.7c5.429,2.353,7.235-1.4,7.235-1.4l10.148,1.516c2.961.577,3.808,3.651,1.839,3.932l-16.946,2.421A2.46,2.46,0,0,1,1014.652,359.543Z" transform="translate(-921.087 -158.844)" fill="#404557"/>
      <path id="Path_405" data-name="Path 405" d="M938.639,267.855s40.823,22.638,45.922,27.579c2.628,7.66,5.593,25.7,5.593,25.7h16.382s2.913-31.484-2.04-41.808-40.888-28.114-40.888-28.114Z" transform="translate(-900.204 -130.474)" fill="#ffc061"/>
      <path id="Path_406" data-name="Path 406" d="M910.443,265.5s13.468,22.665,16.8,31.876,7.5,43.9,7.5,43.9h15.139s7.26-39.781,3.985-53.191-12.535-27.518-12.535-27.518Z" transform="translate(-892.456 -133.045)" fill="#ffc061"/>
      <path id="Path_407" data-name="Path 407" d="M965.721,288.74c-3.275-13.41-12.683-28.176-12.683-28.176" transform="translate(-904.161 -133.045)" fill="none" stroke="#fff" stroke-linejoin="round" stroke-width="0.75"/>
      <path id="Path_408" data-name="Path 408" d="M962.031,134.111s11.837,14.119,6.417,17.256-10.764,2.633-12.692.856c-2.1-1.934-7.818-6.72-6.7-10.268C950.622,136.963,957.04,131.972,962.031,134.111Z" transform="translate(-903.027 -98.155)" fill="#ffbea1"/>
      <path id="Path_409" data-name="Path 409" d="M962.036,157.146l.57,9.983-12.122-2.71,3.831-11.864" transform="translate(-903.46 -103.363)" fill="#ffbea1"/>
      <path id="Path_410" data-name="Path 410" d="M952.543,152.461a7.219,7.219,0,0,0,3.335-1.382c.389-.294.741-.923.338-1.2-.209-.141-.488-.063-.74-.051a2.671,2.671,0,0,1-1.945-1.2,5.714,5.714,0,0,1-1.424-2.324,2.014,2.014,0,0,1,.978-2.331,2.265,2.265,0,0,1,2.347.749,1.159,1.159,0,0,0,.589.415c.4.062.724-.38.722-.784a2.982,2.982,0,0,0-.381-1.141,4.856,4.856,0,0,1-.246-3.208c.149-.549.348-1.252-.107-1.594a1.234,1.234,0,0,0-1.075-.038,18.636,18.636,0,0,0-3.887,1.616,6.991,6.991,0,0,0-3.332,6.909c.445,2.518,2.794,4.305,4.828,5.561" transform="translate(-902.676 -99.438)" fill="#19202d"/>
      <g id="Group_30799" data-name="Group 30799" transform="translate(38.509 59.971)">
        <g id="Group_30798" data-name="Group 30798">
          <path id="Path_411" data-name="Path 411" d="M1003.552,189.151l29.5-8.123s5.921-9.9,7.282-9.668-2.184,4.942-.368,5.246c1.012.169,4.329.065,4.969-.455s2.359-4.87,2.8-4.795c.751.128.086,6.087-1.248,7.42a42.851,42.851,0,0,1-8.143,5.472c-3.255,1.622-35,24.026-41.12,23" transform="translate(-954.812 -168.501)" fill="#f1a989"/>
          <path id="Path_412" data-name="Path 412" d="M1020.221,190.743l3.882-.816,1.325,11.8-10.616,3.972" transform="translate(-959.646 -173.604)" fill="#fff"/>
          <path id="Path_413" data-name="Path 413" d="M938.741,176.641s3.447-10.786,14.577-9.029,31.439,19.429,31.439,19.429l15.318-2.613,1.438,19.891s-12.391,7-20.145,7c-15.941,0-37.994-28.951-37.994-28.951" transform="translate(-938.741 -167.419)" fill="#4d42d6"/>
          <path id="Path_414" data-name="Path 414" d="M962.648,207.851c-10.778-8.013-13.383-15.313-17.519-15.313" transform="translate(-940.497 -174.322)" fill="#c23a18"/>
        </g>
      </g>
      <path id="Path_415" data-name="Path 415" d="M955.09,189.713s3.682,34.974,6.235,50.174c-5.9,10.734-48.937,9.749-50.816,7.87s6.994-46,14.262-56.6S955.09,177.369,955.09,189.713Z" transform="translate(-892.404 -111.384)" fill="#fff8ee"/>
      <path id="Path_416" data-name="Path 416" d="M935.152,167.849S916.282,166.8,907.9,198.7c-8.524,32.439-22.26,54.44-22.26,54.44s5.212-1.817,14.248-.836c14.99,1.629,33.629,9.453,33.629,9.453a221.532,221.532,0,0,0,11.865-33.044c9.066-33.953,3.012-54.318,3.012-54.318Z" transform="translate(-885.64 -107.565)" fill="url(#linear-gradient-2)"/>
      <path id="Path_417" data-name="Path 417" d="M961.682,237.945s-3.695-21.862-2.656-22.809,5.877-.617,5.877-1.439-7.142-2.135-5.877-3.288,7.806-28.757,4.107-33.289" transform="translate(-905.756 -110.114)" fill="none" stroke="#fff" stroke-linejoin="round" stroke-width="0.75"/>
      <g id="Group_30800" data-name="Group 30800" transform="translate(117.546 45.992)">
        <rect id="Rectangle_16517" data-name="Rectangle 16517" width="4.21" height="14.967" transform="matrix(-0.932, 0.362, -0.362, -0.932, 9.704, 14.885)" fill="#ff796d"/>
        <path id="Path_418" data-name="Path 418" d="M1062.163,182.361h0a3.126,3.126,0,0,0,1.782-4.045l-8.49-21.883-5.828,2.263,8.49,21.883A3.126,3.126,0,0,0,1062.163,182.361Z" transform="translate(-1048.417 -151.253)" fill="#701e6e"/>
        <g id="Ellipse_2318" data-name="Ellipse 2318" transform="translate(-16.703 -31.203) rotate(-20)" fill="rgba(255,255,255,0.2)" stroke="#fff" stroke-width="1">
          <ellipse cx="6.5" cy="19.5" rx="6.5" ry="19.5" stroke="none"/>
          <ellipse cx="6.5" cy="19.5" rx="6" ry="19" fill="none"/>
        </g>
      </g>
      <path id="Path_419" data-name="Path 419" d="M944.026,207.851c-3.535,2.844-5.1,7.412-6.464,11.739-4.823,15.342-9.024,30.747-17.318,45.691" transform="translate(-895.149 -118.559)" fill="none" stroke="#fff2f0" stroke-miterlimit="10" stroke-width="0.5"/>
      <path id="Path_420" data-name="Path 420" d="M1008.292,197.431l27.6-11.911s5.921-9.9,7.282-9.668-2.183,4.943-.369,5.246c1.012.169,4.33.065,4.97-.455s2.358-4.87,2.8-4.795c.751.127.086,6.087-1.248,7.42a42.793,42.793,0,0,1-8.143,5.471c-3.255,1.623-33.1,27.815-39.226,26.791" transform="translate(-917.606 -109.764)" fill="#ffbea1"/>
      <path id="Path_421" data-name="Path 421" d="M1016.4,200.64l8.39-3.288,4.655,12.293-11.457,8" transform="translate(-921.575 -115.674)" fill="#fff"/>
      <path id="Path_422" data-name="Path 422" d="M943.289,171.287s3.487-5.206,14.556-3.1c6.386,1.215,31.4,26.668,31.4,26.668l12.371-4.488,6.744,21.337s-15.242,9.6-23,9.6c-15.94,0-37.993-28.951-37.993-28.951" transform="translate(-901.482 -107.521)" fill="url(#linear-gradient-2)"/>
      <path id="Path_423" data-name="Path 423" d="M966.43,221.508C955.652,213.5,953.047,206.2,948.911,206.2" transform="translate(-903.027 -118.104)" fill="none" stroke="#fff" stroke-linejoin="round" stroke-width="0.75"/>
      <path id="Path_424" data-name="Path 424" d="M947.73,265.262,935.565,266.4v1.923l10.933-.031Z" transform="translate(-899.36 -134.336)" fill="#fff"/>
      <path id="Path_425" data-name="Path 425" d="M969.585,139.913s6.468,2.806,6.468,3.9-3.429,2.338-3.429,2.338" transform="translate(-908.709 -99.889)" fill="#ffbea1"/>
      <path id="Path_426" data-name="Path 426" d="M966.315,141.559a.543.543,0,0,1,.566-.247c.511.134.838,1.1.745,1.553-.068.327-.434.611-.735.464a.83.83,0,0,1-.3-.307,1.893,1.893,0,0,1-.428-1.031A.759.759,0,0,1,966.315,141.559Z" transform="translate(-907.769 -100.269)" fill="#19202d"/>
      <path id="Path_427" data-name="Path 427" d="M965.888,137.843a5.516,5.516,0,0,0-3.416,3.178" transform="translate(-906.754 -99.32)" fill="none" stroke="#19202d" stroke-miterlimit="10" stroke-width="1"/>
      <path id="Path_428" data-name="Path 428" d="M975.489,151.8a7.639,7.639,0,0,1-5.166.375" transform="translate(-908.911 -103.154)" fill="none" stroke="#ef977f" stroke-miterlimit="10" stroke-width="0.75"/>
      <path id="Path_429" data-name="Path 429" d="M947.241,371.858l.865,8.978h7.659L957,371.858Z" transform="translate(-902.568 -163.629)" fill="#ffbea1"/>
      <path id="Path_430" data-name="Path 430" d="M951.443,394.127c2.531.081,5.435-4.817,5.435-9.141a20.362,20.362,0,0,0-.064-3.535c-.136-1.16-9.386-1.839-9.7.941S945.575,393.942,951.443,394.127Z" transform="translate(-902.447 -165.988)" fill="#404557"/>
      <path id="Path_431" data-name="Path 431" d="M960.052,130.5a3.319,3.319,0,0,0,3.288-3.034c.371-3.057-.6-7.273-5.652-7s-6.625,7.69-11.349,10.562-7.708,7.2.593,12.7C949.443,140.528,950.835,131.587,960.052,130.5Z" transform="translate(-901.049 -94.542)" fill="#19202d"/>
      <path id="Path_432" data-name="Path 432" d="M929.354,283.221s10.027,13.218,11.684,23.348S944.672,344,944.672,344" transform="translate(-897.653 -139.271)" fill="none" stroke="#fff" stroke-linejoin="round" stroke-width="0.75"/>
      <path id="Path_433" data-name="Path 433" d="M967.2,283.9s27.281,12.477,29.381,16.307,5.013,29.278,5.013,29.278" transform="translate(-908.053 -139.458)" fill="none" stroke="#fff" stroke-linejoin="round" stroke-width="0.75"/>
    </g>
  </g>
</svg>
